<mxfile host="Electron" modified="2024-06-12T01:05:19.720Z" agent="Mozilla/5.0 (Windows NT 10.0; Win64; x64) AppleWebKit/537.36 (KHTML, like Gecko) draw.io/22.0.3 Chrome/114.0.5735.289 Electron/25.8.4 Safari/537.36" etag="M2kD71gtHjVh10tlfdjZ" version="22.0.3" type="device">
  <diagram name="Page-1" id="cXSQKKOMePguXqx7XG5u">
    <mxGraphModel dx="1418" dy="820" grid="1" gridSize="10" guides="1" tooltips="1" connect="1" arrows="1" fold="1" page="1" pageScale="1" pageWidth="850" pageHeight="1100" math="0" shadow="0">
      <root>
        <mxCell id="0" />
        <mxCell id="1" parent="0" />
        <mxCell id="VH9nwzgeH6Tg8-Pe4hsY-1" value="" style="ellipse;whiteSpace=wrap;html=1;aspect=fixed;fillColor=#CCCCCC;" vertex="1" parent="1">
          <mxGeometry x="240" y="150" width="70" height="70" as="geometry" />
        </mxCell>
        <mxCell id="VH9nwzgeH6Tg8-Pe4hsY-2" value="" style="ellipse;whiteSpace=wrap;html=1;aspect=fixed;fillColor=#CCCCCC;" vertex="1" parent="1">
          <mxGeometry x="50" y="310" width="70" height="70" as="geometry" />
        </mxCell>
        <mxCell id="VH9nwzgeH6Tg8-Pe4hsY-3" value="" style="ellipse;whiteSpace=wrap;html=1;aspect=fixed;fillColor=#CCCCCC;" vertex="1" parent="1">
          <mxGeometry x="630" y="150" width="70" height="70" as="geometry" />
        </mxCell>
        <mxCell id="VH9nwzgeH6Tg8-Pe4hsY-4" value="" style="ellipse;whiteSpace=wrap;html=1;aspect=fixed;fillColor=#CCCCCC;" vertex="1" parent="1">
          <mxGeometry x="630" y="470" width="70" height="70" as="geometry" />
        </mxCell>
        <mxCell id="VH9nwzgeH6Tg8-Pe4hsY-5" value="" style="ellipse;whiteSpace=wrap;html=1;aspect=fixed;fillColor=#CCCCCC;" vertex="1" parent="1">
          <mxGeometry x="240" y="470" width="70" height="70" as="geometry" />
        </mxCell>
        <mxCell id="VH9nwzgeH6Tg8-Pe4hsY-6" value="" style="endArrow=classic;html=1;rounded=0;exitX=0.943;exitY=0.271;exitDx=0;exitDy=0;exitPerimeter=0;entryX=0;entryY=1;entryDx=0;entryDy=0;" edge="1" parent="1" source="VH9nwzgeH6Tg8-Pe4hsY-2" target="VH9nwzgeH6Tg8-Pe4hsY-1">
          <mxGeometry width="50" height="50" relative="1" as="geometry">
            <mxPoint x="150" y="300" as="sourcePoint" />
            <mxPoint x="200" y="250" as="targetPoint" />
          </mxGeometry>
        </mxCell>
        <mxCell id="VH9nwzgeH6Tg8-Pe4hsY-7" value="" style="endArrow=classic;html=1;rounded=0;" edge="1" parent="1" source="VH9nwzgeH6Tg8-Pe4hsY-2" target="VH9nwzgeH6Tg8-Pe4hsY-5">
          <mxGeometry width="50" height="50" relative="1" as="geometry">
            <mxPoint x="130" y="460" as="sourcePoint" />
            <mxPoint x="180" y="410" as="targetPoint" />
          </mxGeometry>
        </mxCell>
        <mxCell id="VH9nwzgeH6Tg8-Pe4hsY-8" value="" style="endArrow=classic;html=1;rounded=0;exitX=0.5;exitY=1;exitDx=0;exitDy=0;entryX=0.5;entryY=0;entryDx=0;entryDy=0;" edge="1" parent="1" source="VH9nwzgeH6Tg8-Pe4hsY-1" target="VH9nwzgeH6Tg8-Pe4hsY-5">
          <mxGeometry width="50" height="50" relative="1" as="geometry">
            <mxPoint x="320" y="350" as="sourcePoint" />
            <mxPoint x="310" y="430" as="targetPoint" />
          </mxGeometry>
        </mxCell>
        <mxCell id="VH9nwzgeH6Tg8-Pe4hsY-9" value="" style="endArrow=classic;html=1;rounded=0;exitX=0.986;exitY=0.843;exitDx=0;exitDy=0;exitPerimeter=0;entryX=0.071;entryY=0.286;entryDx=0;entryDy=0;entryPerimeter=0;" edge="1" parent="1" source="VH9nwzgeH6Tg8-Pe4hsY-1" target="VH9nwzgeH6Tg8-Pe4hsY-4">
          <mxGeometry width="50" height="50" relative="1" as="geometry">
            <mxPoint x="390" y="310" as="sourcePoint" />
            <mxPoint x="440" y="260" as="targetPoint" />
          </mxGeometry>
        </mxCell>
        <mxCell id="VH9nwzgeH6Tg8-Pe4hsY-10" value="" style="endArrow=classic;html=1;rounded=0;exitX=0.986;exitY=0.271;exitDx=0;exitDy=0;exitPerimeter=0;entryX=0;entryY=1;entryDx=0;entryDy=0;" edge="1" parent="1" source="VH9nwzgeH6Tg8-Pe4hsY-5" target="VH9nwzgeH6Tg8-Pe4hsY-3">
          <mxGeometry width="50" height="50" relative="1" as="geometry">
            <mxPoint x="350" y="440" as="sourcePoint" />
            <mxPoint x="400" y="390" as="targetPoint" />
          </mxGeometry>
        </mxCell>
        <mxCell id="VH9nwzgeH6Tg8-Pe4hsY-11" value="" style="endArrow=classic;html=1;rounded=0;exitX=1;exitY=0.6;exitDx=0;exitDy=0;exitPerimeter=0;entryX=0;entryY=0.614;entryDx=0;entryDy=0;entryPerimeter=0;" edge="1" parent="1" source="VH9nwzgeH6Tg8-Pe4hsY-5" target="VH9nwzgeH6Tg8-Pe4hsY-4">
          <mxGeometry width="50" height="50" relative="1" as="geometry">
            <mxPoint x="410" y="520" as="sourcePoint" />
            <mxPoint x="460" y="470" as="targetPoint" />
          </mxGeometry>
        </mxCell>
        <mxCell id="VH9nwzgeH6Tg8-Pe4hsY-12" value="" style="endArrow=classic;html=1;rounded=0;exitX=0.5;exitY=0;exitDx=0;exitDy=0;entryX=0.5;entryY=1;entryDx=0;entryDy=0;" edge="1" parent="1" source="VH9nwzgeH6Tg8-Pe4hsY-4" target="VH9nwzgeH6Tg8-Pe4hsY-3">
          <mxGeometry width="50" height="50" relative="1" as="geometry">
            <mxPoint x="720" y="380" as="sourcePoint" />
            <mxPoint x="770" y="330" as="targetPoint" />
          </mxGeometry>
        </mxCell>
        <mxCell id="VH9nwzgeH6Tg8-Pe4hsY-14" value="" style="endArrow=classic;html=1;rounded=0;exitX=1;exitY=0;exitDx=0;exitDy=0;entryX=0.057;entryY=0.157;entryDx=0;entryDy=0;entryPerimeter=0;" edge="1" parent="1" source="VH9nwzgeH6Tg8-Pe4hsY-1" target="VH9nwzgeH6Tg8-Pe4hsY-3">
          <mxGeometry width="50" height="50" relative="1" as="geometry">
            <mxPoint x="420" y="160" as="sourcePoint" />
            <mxPoint x="630" y="150" as="targetPoint" />
            <Array as="points">
              <mxPoint x="470" y="130" />
            </Array>
          </mxGeometry>
        </mxCell>
        <mxCell id="VH9nwzgeH6Tg8-Pe4hsY-15" value="" style="endArrow=classic;html=1;rounded=0;exitX=-0.057;exitY=0.629;exitDx=0;exitDy=0;exitPerimeter=0;entryX=1.029;entryY=0.614;entryDx=0;entryDy=0;entryPerimeter=0;" edge="1" parent="1" source="VH9nwzgeH6Tg8-Pe4hsY-3" target="VH9nwzgeH6Tg8-Pe4hsY-1">
          <mxGeometry width="50" height="50" relative="1" as="geometry">
            <mxPoint x="480" y="240" as="sourcePoint" />
            <mxPoint x="530" y="190" as="targetPoint" />
            <Array as="points">
              <mxPoint x="470" y="220" />
            </Array>
          </mxGeometry>
        </mxCell>
        <mxCell id="VH9nwzgeH6Tg8-Pe4hsY-16" value="" style="endArrow=classic;html=1;rounded=0;exitX=0;exitY=0.5;exitDx=0;exitDy=0;entryX=1.043;entryY=0.614;entryDx=0;entryDy=0;entryPerimeter=0;" edge="1" parent="1" source="VH9nwzgeH6Tg8-Pe4hsY-4" target="VH9nwzgeH6Tg8-Pe4hsY-2">
          <mxGeometry width="50" height="50" relative="1" as="geometry">
            <mxPoint x="470" y="470" as="sourcePoint" />
            <mxPoint x="520" y="420" as="targetPoint" />
          </mxGeometry>
        </mxCell>
        <mxCell id="VH9nwzgeH6Tg8-Pe4hsY-17" value="&lt;font style=&quot;font-size: 36px;&quot;&gt;t&lt;/font&gt;" style="text;html=1;strokeColor=none;fillColor=none;align=center;verticalAlign=middle;whiteSpace=wrap;rounded=0;" vertex="1" parent="1">
          <mxGeometry x="245" y="110" width="60" height="30" as="geometry" />
        </mxCell>
        <mxCell id="VH9nwzgeH6Tg8-Pe4hsY-18" value="&lt;font style=&quot;font-size: 36px;&quot;&gt;x&lt;/font&gt;" style="text;html=1;strokeColor=none;fillColor=none;align=center;verticalAlign=middle;whiteSpace=wrap;rounded=0;" vertex="1" parent="1">
          <mxGeometry x="635" y="110" width="60" height="30" as="geometry" />
        </mxCell>
        <mxCell id="VH9nwzgeH6Tg8-Pe4hsY-19" value="&lt;font style=&quot;font-size: 36px;&quot;&gt;s&lt;/font&gt;" style="text;html=1;strokeColor=none;fillColor=none;align=center;verticalAlign=middle;whiteSpace=wrap;rounded=0;" vertex="1" parent="1">
          <mxGeometry y="330" width="60" height="30" as="geometry" />
        </mxCell>
        <mxCell id="VH9nwzgeH6Tg8-Pe4hsY-20" value="&lt;font style=&quot;font-size: 36px;&quot;&gt;y&lt;/font&gt;" style="text;html=1;strokeColor=none;fillColor=none;align=center;verticalAlign=middle;whiteSpace=wrap;rounded=0;" vertex="1" parent="1">
          <mxGeometry x="245" y="550" width="60" height="30" as="geometry" />
        </mxCell>
        <mxCell id="VH9nwzgeH6Tg8-Pe4hsY-21" value="&lt;font style=&quot;font-size: 36px;&quot;&gt;z&lt;/font&gt;" style="text;html=1;strokeColor=none;fillColor=none;align=center;verticalAlign=middle;whiteSpace=wrap;rounded=0;" vertex="1" parent="1">
          <mxGeometry x="635" y="550" width="60" height="30" as="geometry" />
        </mxCell>
        <mxCell id="VH9nwzgeH6Tg8-Pe4hsY-22" value="&lt;font style=&quot;font-size: 24px;&quot;&gt;5&lt;/font&gt;" style="text;html=1;strokeColor=none;fillColor=none;align=center;verticalAlign=middle;whiteSpace=wrap;rounded=0;" vertex="1" parent="1">
          <mxGeometry x="440" y="100" width="60" height="30" as="geometry" />
        </mxCell>
        <mxCell id="VH9nwzgeH6Tg8-Pe4hsY-23" value="&lt;font style=&quot;font-size: 24px;&quot;&gt;-2&lt;/font&gt;" style="text;html=1;strokeColor=none;fillColor=none;align=center;verticalAlign=middle;whiteSpace=wrap;rounded=0;" vertex="1" parent="1">
          <mxGeometry x="440" y="230" width="60" height="30" as="geometry" />
        </mxCell>
        <mxCell id="VH9nwzgeH6Tg8-Pe4hsY-24" value="&lt;font style=&quot;font-size: 24px;&quot;&gt;6&lt;/font&gt;" style="text;html=1;strokeColor=none;fillColor=none;align=center;verticalAlign=middle;whiteSpace=wrap;rounded=0;" vertex="1" parent="1">
          <mxGeometry x="140" y="240" width="60" height="30" as="geometry" />
        </mxCell>
        <mxCell id="VH9nwzgeH6Tg8-Pe4hsY-25" value="&lt;font style=&quot;font-size: 24px;&quot;&gt;-3&lt;/font&gt;" style="text;html=1;strokeColor=none;fillColor=none;align=center;verticalAlign=middle;whiteSpace=wrap;rounded=0;" vertex="1" parent="1">
          <mxGeometry x="530" y="280" width="60" height="30" as="geometry" />
        </mxCell>
        <mxCell id="VH9nwzgeH6Tg8-Pe4hsY-26" value="&lt;font style=&quot;font-size: 24px;&quot;&gt;2&lt;/font&gt;" style="text;html=1;strokeColor=none;fillColor=none;align=center;verticalAlign=middle;whiteSpace=wrap;rounded=0;" vertex="1" parent="1">
          <mxGeometry x="450" y="430" width="60" height="30" as="geometry" />
        </mxCell>
        <mxCell id="VH9nwzgeH6Tg8-Pe4hsY-27" value="&lt;font style=&quot;font-size: 24px;&quot;&gt;9&lt;/font&gt;" style="text;html=1;strokeColor=none;fillColor=none;align=center;verticalAlign=middle;whiteSpace=wrap;rounded=0;" vertex="1" parent="1">
          <mxGeometry x="440" y="510" width="60" height="30" as="geometry" />
        </mxCell>
        <mxCell id="VH9nwzgeH6Tg8-Pe4hsY-28" value="&lt;font style=&quot;font-size: 24px;&quot;&gt;7&lt;/font&gt;" style="text;html=1;strokeColor=none;fillColor=none;align=center;verticalAlign=middle;whiteSpace=wrap;rounded=0;" vertex="1" parent="1">
          <mxGeometry x="140" y="420" width="60" height="30" as="geometry" />
        </mxCell>
        <mxCell id="VH9nwzgeH6Tg8-Pe4hsY-29" value="&lt;font style=&quot;font-size: 24px;&quot;&gt;8&lt;/font&gt;" style="text;html=1;strokeColor=none;fillColor=none;align=center;verticalAlign=middle;whiteSpace=wrap;rounded=0;" vertex="1" parent="1">
          <mxGeometry x="230" y="310" width="60" height="30" as="geometry" />
        </mxCell>
        <mxCell id="VH9nwzgeH6Tg8-Pe4hsY-30" value="&lt;font style=&quot;font-size: 24px;&quot;&gt;-4&lt;/font&gt;" style="text;html=1;strokeColor=none;fillColor=none;align=center;verticalAlign=middle;whiteSpace=wrap;rounded=0;" vertex="1" parent="1">
          <mxGeometry x="520" y="380" width="60" height="30" as="geometry" />
        </mxCell>
        <mxCell id="VH9nwzgeH6Tg8-Pe4hsY-31" value="&lt;font style=&quot;font-size: 24px;&quot;&gt;7&lt;/font&gt;" style="text;html=1;strokeColor=none;fillColor=none;align=center;verticalAlign=middle;whiteSpace=wrap;rounded=0;" vertex="1" parent="1">
          <mxGeometry x="650" y="330" width="60" height="30" as="geometry" />
        </mxCell>
        <mxCell id="VH9nwzgeH6Tg8-Pe4hsY-32" value="&lt;font style=&quot;font-size: 36px;&quot;&gt;Initialization&lt;/font&gt;" style="text;html=1;strokeColor=none;fillColor=none;align=center;verticalAlign=middle;whiteSpace=wrap;rounded=0;" vertex="1" parent="1">
          <mxGeometry x="90" y="40" width="310" height="30" as="geometry" />
        </mxCell>
        <mxCell id="VH9nwzgeH6Tg8-Pe4hsY-33" value="&lt;font style=&quot;font-size: 24px;&quot;&gt;0&lt;/font&gt;" style="text;html=1;strokeColor=none;fillColor=none;align=center;verticalAlign=middle;whiteSpace=wrap;rounded=0;" vertex="1" parent="1">
          <mxGeometry x="635" y="490" width="60" height="30" as="geometry" />
        </mxCell>
      </root>
    </mxGraphModel>
  </diagram>
</mxfile>
